<?xml version="1.0" encoding="UTF-8"?>
<svg xmlns="http://www.w3.org/2000/svg" xmlns:xlink="http://www.w3.org/1999/xlink" width="237.464pt" height="275.852pt" viewBox="0 0 237.464 275.852" version="1.2">
<defs>
<g>
<symbol overflow="visible" id="glyph0-0">
<path style="stroke:none;" d=""/>
</symbol>
<symbol overflow="visible" id="glyph0-1">
<path style="stroke:none;" d="M 4.640625 -4.875 C 4.265625 -4.796875 4.078125 -4.546875 4.078125 -4.28125 C 4.078125 -4 4.296875 -3.90625 4.46875 -3.90625 C 4.796875 -3.90625 5.078125 -4.1875 5.078125 -4.546875 C 5.078125 -4.921875 4.703125 -5.25 4.109375 -5.25 C 3.640625 -5.25 3.09375 -5.046875 2.59375 -4.3125 C 2.5 -4.953125 2.03125 -5.25 1.546875 -5.25 C 1.078125 -5.25 0.84375 -4.90625 0.703125 -4.640625 C 0.5 -4.203125 0.328125 -3.5 0.328125 -3.4375 C 0.328125 -3.390625 0.375 -3.328125 0.453125 -3.328125 C 0.546875 -3.328125 0.5625 -3.34375 0.625 -3.609375 C 0.8125 -4.328125 1.03125 -5.015625 1.515625 -5.015625 C 1.796875 -5.015625 1.890625 -4.8125 1.890625 -4.46875 C 1.890625 -4.203125 1.765625 -3.75 1.6875 -3.375 L 1.34375 -2.09375 C 1.296875 -1.859375 1.171875 -1.328125 1.109375 -1.109375 C 1.03125 -0.796875 0.890625 -0.234375 0.890625 -0.171875 C 0.890625 -0.015625 1.03125 0.125 1.203125 0.125 C 1.328125 0.125 1.5625 0.03125 1.640625 -0.203125 C 1.671875 -0.296875 2.109375 -2.09375 2.1875 -2.375 C 2.234375 -2.640625 2.3125 -2.890625 2.375 -3.140625 C 2.421875 -3.3125 2.46875 -3.5 2.5 -3.65625 C 2.546875 -3.765625 2.859375 -4.34375 3.15625 -4.609375 C 3.296875 -4.75 3.609375 -5.015625 4.09375 -5.015625 C 4.296875 -5.015625 4.484375 -4.984375 4.640625 -4.875 Z M 4.640625 -4.875 "/>
</symbol>
<symbol overflow="visible" id="glyph1-0">
<path style="stroke:none;" d=""/>
</symbol>
<symbol overflow="visible" id="glyph1-1">
<path style="stroke:none;" d="M 4.5 -3.453125 C 4.5 -3.484375 4.515625 -3.546875 4.515625 -3.59375 C 4.515625 -3.71875 4.4375 -3.859375 4.25 -3.859375 C 4.125 -3.859375 3.96875 -3.78125 3.890625 -3.609375 C 3.890625 -3.578125 3.796875 -3.21875 3.75 -3.015625 L 3.296875 -1.234375 C 3.21875 -0.96875 3.21875 -0.953125 3.203125 -0.875 C 3.203125 -0.828125 2.8125 -0.125 2.171875 -0.125 C 1.625 -0.125 1.625 -0.6875 1.625 -0.859375 C 1.625 -1.265625 1.734375 -1.703125 2.125 -2.703125 C 2.1875 -2.90625 2.25 -3.03125 2.25 -3.203125 C 2.25 -3.640625 1.921875 -3.953125 1.484375 -3.953125 C 0.625 -3.953125 0.265625 -2.6875 0.265625 -2.578125 C 0.265625 -2.5 0.328125 -2.46875 0.390625 -2.46875 C 0.484375 -2.46875 0.5 -2.53125 0.53125 -2.640625 C 0.71875 -3.296875 1.078125 -3.734375 1.453125 -3.734375 C 1.671875 -3.734375 1.671875 -3.5625 1.671875 -3.4375 C 1.671875 -3.28125 1.625 -3.125 1.546875 -2.90625 C 1.125 -1.796875 1.015625 -1.421875 1.015625 -1 C 1.015625 0 1.8125 0.09375 2.15625 0.09375 C 2.59375 0.09375 2.90625 -0.140625 3.0625 -0.296875 C 2.953125 0.15625 2.84375 0.5625 2.5 1.015625 C 2.234375 1.375 1.875 1.609375 1.484375 1.609375 C 1.234375 1.609375 0.9375 1.515625 0.8125 1.265625 C 1.28125 1.265625 1.34375 0.875 1.34375 0.78125 C 1.34375 0.59375 1.203125 0.46875 1 0.46875 C 0.78125 0.46875 0.5 0.640625 0.5 1.046875 C 0.5 1.515625 0.90625 1.828125 1.484375 1.828125 C 2.390625 1.828125 3.359375 1.0625 3.625 0.015625 Z M 4.5 -3.453125 "/>
</symbol>
<symbol overflow="visible" id="glyph2-0">
<path style="stroke:none;" d=""/>
</symbol>
<symbol overflow="visible" id="glyph2-1">
<path style="stroke:none;" d="M 6.328125 -2.046875 C 6.453125 -2.046875 6.640625 -2.046875 6.640625 -2.234375 C 6.640625 -2.4375 6.46875 -2.4375 6.328125 -2.4375 L 3.765625 -2.4375 L 3.765625 -5 C 3.765625 -5.140625 3.765625 -5.3125 3.578125 -5.3125 C 3.390625 -5.3125 3.390625 -5.125 3.390625 -5 L 3.390625 -2.4375 L 0.828125 -2.4375 C 0.703125 -2.4375 0.515625 -2.4375 0.515625 -2.25 C 0.515625 -2.046875 0.6875 -2.046875 0.828125 -2.046875 L 3.390625 -2.046875 L 3.390625 0.515625 C 3.390625 0.65625 3.390625 0.828125 3.578125 0.828125 C 3.765625 0.828125 3.765625 0.640625 3.765625 0.515625 L 3.765625 -2.046875 Z M 6.328125 -2.046875 "/>
</symbol>
<symbol overflow="visible" id="glyph3-0">
<path style="stroke:none;" d=""/>
</symbol>
<symbol overflow="visible" id="glyph3-1">
<path style="stroke:none;" d="M 6.046875 -2.046875 C 6.203125 -2.046875 6.375 -2.046875 6.375 -2.25 C 6.375 -2.4375 6.203125 -2.4375 6.046875 -2.4375 L 1.09375 -2.4375 C 0.953125 -2.4375 0.765625 -2.4375 0.765625 -2.25 C 0.765625 -2.046875 0.9375 -2.046875 1.09375 -2.046875 Z M 6.046875 -2.046875 "/>
</symbol>
<symbol overflow="visible" id="glyph4-0">
<path style="stroke:none;" d=""/>
</symbol>
<symbol overflow="visible" id="glyph4-1">
<path style="stroke:none;" d="M 7.765625 -8.125 C 7.765625 -8.328125 7.765625 -8.390625 7.65625 -8.390625 C 7.578125 -8.390625 7.578125 -8.375 7.5 -8.25 L 6.921875 -7.3125 C 6.375 -7.96875 5.5625 -8.390625 4.703125 -8.390625 C 2.53125 -8.390625 0.640625 -6.515625 0.640625 -4.078125 C 0.640625 -1.609375 2.546875 0.25 4.703125 0.25 C 6.671875 0.25 7.765625 -1.453125 7.765625 -2.765625 C 7.765625 -2.890625 7.765625 -2.96875 7.640625 -2.96875 C 7.515625 -2.96875 7.515625 -2.90625 7.515625 -2.828125 C 7.40625 -0.9375 6.015625 -0.09375 4.859375 -0.09375 C 4.03125 -0.09375 1.75 -0.59375 1.75 -4.078125 C 1.75 -7.515625 4 -8.046875 4.859375 -8.046875 C 6.109375 -8.046875 7.203125 -6.984375 7.4375 -5.203125 C 7.46875 -5.0625 7.46875 -5.015625 7.609375 -5.015625 C 7.765625 -5.015625 7.765625 -5.0625 7.765625 -5.296875 Z M 7.765625 -8.125 "/>
</symbol>
<symbol overflow="visible" id="glyph4-2">
<path style="stroke:none;" d="M 7.78125 -8.078125 L 0.625 -8.078125 L 0.421875 -5.421875 L 0.671875 -5.421875 C 0.84375 -7.3125 0.953125 -7.734375 2.84375 -7.734375 C 3.046875 -7.734375 3.390625 -7.734375 3.484375 -7.71875 C 3.71875 -7.671875 3.734375 -7.53125 3.734375 -7.265625 L 3.734375 -0.921875 C 3.734375 -0.515625 3.734375 -0.34375 2.5625 -0.34375 L 2.140625 -0.34375 L 2.140625 0 C 2.515625 -0.03125 3.75 -0.03125 4.203125 -0.03125 C 4.671875 -0.03125 5.90625 -0.03125 6.296875 0 L 6.296875 -0.34375 L 5.859375 -0.34375 C 4.703125 -0.34375 4.703125 -0.515625 4.703125 -0.921875 L 4.703125 -7.265625 C 4.703125 -7.5625 4.71875 -7.671875 4.90625 -7.71875 C 5 -7.734375 5.359375 -7.734375 5.578125 -7.734375 C 7.46875 -7.734375 7.578125 -7.3125 7.734375 -5.421875 L 8 -5.421875 Z M 7.78125 -8.078125 "/>
</symbol>
<symbol overflow="visible" id="glyph4-3">
<path style="stroke:none;" d="M 6.796875 -2.734375 C 6.796875 -1.078125 5.65625 -0.09375 4.546875 -0.09375 C 3.828125 -0.09375 2.59375 -0.578125 2.59375 -2.65625 L 2.59375 -7.234375 C 2.59375 -7.671875 2.625 -7.796875 3.484375 -7.796875 L 3.71875 -7.796875 L 3.71875 -8.140625 C 3.4375 -8.125 2.453125 -8.125 2.109375 -8.125 C 1.75 -8.125 0.78125 -8.125 0.484375 -8.140625 L 0.484375 -7.796875 L 0.734375 -7.796875 C 1.578125 -7.796875 1.625 -7.671875 1.625 -7.234375 L 1.625 -2.734375 C 1.625 -1 3 0.25 4.515625 0.25 C 6.171875 0.25 7.125 -1.375 7.125 -2.5625 L 7.125 -7.0625 C 7.125 -7.796875 8.03125 -7.796875 8.25 -7.796875 L 8.25 -8.140625 C 7.9375 -8.125 7.296875 -8.125 6.96875 -8.125 C 6.609375 -8.125 5.96875 -8.125 5.65625 -8.140625 L 5.65625 -7.796875 C 6.796875 -7.796875 6.796875 -7.234375 6.796875 -6.921875 Z M 6.796875 -2.734375 "/>
</symbol>
<symbol overflow="visible" id="glyph4-4">
<path style="stroke:none;" d="M 6.8125 -8.125 L 0.484375 -8.125 L 0.484375 -7.765625 L 0.734375 -7.765625 C 1.578125 -7.765625 1.625 -7.65625 1.625 -7.21875 L 1.625 -0.90625 C 1.625 -0.46875 1.578125 -0.34375 0.734375 -0.34375 L 0.484375 -0.34375 L 0.484375 0 C 0.78125 -0.03125 1.84375 -0.03125 2.1875 -0.03125 C 2.609375 -0.03125 3.65625 -0.03125 4 0 L 4 -0.34375 L 3.640625 -0.34375 C 2.609375 -0.34375 2.59375 -0.484375 2.59375 -0.921875 L 2.59375 -3.890625 L 3.640625 -3.890625 C 4.75 -3.890625 4.875 -3.5 4.875 -2.484375 L 5.140625 -2.484375 L 5.140625 -5.625 L 4.875 -5.625 C 4.875 -4.625 4.75 -4.234375 3.640625 -4.234375 L 2.59375 -4.234375 L 2.59375 -7.296875 C 2.59375 -7.6875 2.609375 -7.765625 3.140625 -7.765625 L 4.625 -7.765625 C 6.34375 -7.765625 6.6875 -7.140625 6.859375 -5.453125 L 7.125 -5.453125 Z M 6.8125 -8.125 "/>
</symbol>
<symbol overflow="visible" id="glyph5-0">
<path style="stroke:none;" d=""/>
</symbol>
<symbol overflow="visible" id="glyph5-1">
<path style="stroke:none;" d="M 9.328125 -9.75 C 9.328125 -10 9.328125 -10.078125 9.1875 -10.078125 C 9.109375 -10.078125 9.09375 -10.046875 9 -9.90625 L 8.296875 -8.78125 C 7.65625 -9.578125 6.6875 -10.078125 5.65625 -10.078125 C 3.03125 -10.078125 0.765625 -7.8125 0.765625 -4.890625 C 0.765625 -1.9375 3.0625 0.296875 5.65625 0.296875 C 8 0.296875 9.328125 -1.75 9.328125 -3.328125 C 9.328125 -3.484375 9.328125 -3.5625 9.171875 -3.5625 C 9.03125 -3.5625 9.015625 -3.5 9.015625 -3.390625 C 8.890625 -1.109375 7.234375 -0.109375 5.84375 -0.109375 C 4.84375 -0.109375 2.109375 -0.71875 2.109375 -4.890625 C 2.109375 -9.03125 4.796875 -9.65625 5.828125 -9.65625 C 7.328125 -9.65625 8.640625 -8.390625 8.9375 -6.234375 C 8.953125 -6.0625 8.953125 -6.03125 9.125 -6.03125 C 9.328125 -6.03125 9.328125 -6.0625 9.328125 -6.359375 Z M 9.328125 -9.75 "/>
</symbol>
<symbol overflow="visible" id="glyph5-2">
<path style="stroke:none;" d="M 4.65625 3.484375 C 4.65625 3.4375 4.65625 3.40625 4.40625 3.15625 C 2.984375 1.71875 2.171875 -0.640625 2.171875 -3.5625 C 2.171875 -6.34375 2.84375 -8.734375 4.515625 -10.421875 C 4.65625 -10.546875 4.65625 -10.578125 4.65625 -10.625 C 4.65625 -10.703125 4.578125 -10.734375 4.515625 -10.734375 C 4.34375 -10.734375 3.15625 -9.703125 2.46875 -8.296875 C 1.734375 -6.859375 1.40625 -5.328125 1.40625 -3.5625 C 1.40625 -2.296875 1.609375 -0.59375 2.34375 0.9375 C 3.1875 2.65625 4.359375 3.59375 4.515625 3.59375 C 4.578125 3.59375 4.65625 3.5625 4.65625 3.484375 Z M 4.65625 3.484375 "/>
</symbol>
<symbol overflow="visible" id="glyph5-3">
<path style="stroke:none;" d="M 6.5625 -3.0625 C 6.5625 -4.90625 5.171875 -6.390625 3.5 -6.390625 C 1.796875 -6.390625 0.421875 -4.859375 0.421875 -3.0625 C 0.421875 -1.234375 1.859375 0.140625 3.5 0.140625 C 5.1875 0.140625 6.5625 -1.265625 6.5625 -3.0625 Z M 3.5 -0.171875 C 2.984375 -0.171875 2.328125 -0.40625 1.921875 -1.109375 C 1.53125 -1.75 1.515625 -2.59375 1.515625 -3.1875 C 1.515625 -3.734375 1.515625 -4.609375 1.953125 -5.25 C 2.359375 -5.875 2.984375 -6.09375 3.5 -6.09375 C 4.046875 -6.09375 4.65625 -5.84375 5.03125 -5.28125 C 5.484375 -4.625 5.484375 -3.71875 5.484375 -3.1875 C 5.484375 -2.6875 5.484375 -1.796875 5.109375 -1.125 C 4.703125 -0.4375 4.046875 -0.171875 3.5 -0.171875 Z M 3.5 -0.171875 "/>
</symbol>
<symbol overflow="visible" id="glyph5-4">
<path style="stroke:none;" d="M 6.375 -3.484375 C 6.375 -4.8125 6.375 -5.203125 6.046875 -5.671875 C 5.625 -6.21875 4.953125 -6.3125 4.46875 -6.3125 C 3.078125 -6.3125 2.53125 -5.125 2.421875 -4.84375 L 2.40625 -4.84375 L 2.40625 -6.3125 L 0.453125 -6.15625 L 0.453125 -5.734375 C 1.4375 -5.734375 1.546875 -5.640625 1.546875 -4.9375 L 1.546875 -1.0625 C 1.546875 -0.421875 1.390625 -0.421875 0.453125 -0.421875 L 0.453125 0 C 0.828125 -0.03125 1.609375 -0.03125 2 -0.03125 C 2.421875 -0.03125 3.1875 -0.03125 3.5625 0 L 3.5625 -0.421875 C 2.640625 -0.421875 2.46875 -0.421875 2.46875 -1.0625 L 2.46875 -3.71875 C 2.46875 -5.21875 3.46875 -6.03125 4.34375 -6.03125 C 5.234375 -6.03125 5.4375 -5.296875 5.4375 -4.421875 L 5.4375 -1.0625 C 5.4375 -0.421875 5.28125 -0.421875 4.34375 -0.421875 L 4.34375 0 C 4.71875 -0.03125 5.5 -0.03125 5.890625 -0.03125 C 6.3125 -0.03125 7.078125 -0.03125 7.453125 0 L 7.453125 -0.421875 C 6.734375 -0.421875 6.390625 -0.421875 6.375 -0.84375 Z M 6.375 -3.484375 "/>
</symbol>
<symbol overflow="visible" id="glyph5-5">
<path style="stroke:none;" d="M 4.546875 -6.21875 C 4.46875 -6.21875 4.328125 -6.203125 4.296875 -6.1875 C 4.265625 -6.171875 4.234375 -6.171875 4.03125 -6.171875 L 2.359375 -6.171875 L 2.359375 -7.78125 C 2.359375 -9.25 3.609375 -9.796875 4.453125 -9.796875 C 4.59375 -9.796875 5.28125 -9.78125 5.703125 -9.28125 C 5.109375 -9.28125 5.0625 -8.84375 5.0625 -8.6875 C 5.0625 -8.265625 5.40625 -8.09375 5.65625 -8.09375 C 5.90625 -8.09375 6.25 -8.265625 6.25 -8.703125 C 6.25 -9.4375 5.578125 -10.078125 4.484375 -10.078125 C 3.171875 -10.078125 1.484375 -9.359375 1.484375 -7.8125 L 1.484375 -6.171875 L 0.375 -6.171875 L 0.375 -5.75 L 1.484375 -5.75 L 1.484375 -1.0625 C 1.484375 -0.421875 1.328125 -0.421875 0.40625 -0.421875 L 0.40625 0 C 0.796875 -0.03125 1.5 -0.03125 1.9375 -0.03125 C 2.359375 -0.03125 3.078125 -0.03125 3.484375 0 L 3.484375 -0.421875 C 2.5625 -0.421875 2.390625 -0.421875 2.390625 -1.0625 L 2.390625 -5.75 L 4.640625 -5.75 C 5.296875 -5.75 5.375 -5.5625 5.375 -4.984375 L 5.375 -1.0625 C 5.375 -0.421875 5.21875 -0.421875 4.296875 -0.421875 L 4.296875 0 C 4.6875 -0.03125 5.390625 -0.03125 5.828125 -0.03125 C 6.25 -0.03125 6.96875 -0.03125 7.375 0 L 7.375 -0.421875 C 6.453125 -0.421875 6.28125 -0.421875 6.28125 -1.0625 L 6.28125 -6.328125 Z M 4.546875 -6.21875 "/>
</symbol>
<symbol overflow="visible" id="glyph5-6">
<path style="stroke:none;" d="M 4.296875 -9.78125 L 4.296875 -9.359375 C 5.265625 -9.359375 5.375 -9.265625 5.375 -8.5625 L 5.375 -5.390625 C 5.078125 -5.8125 4.46875 -6.3125 3.59375 -6.3125 C 1.9375 -6.3125 0.5 -4.90625 0.5 -3.078125 C 0.5 -1.265625 1.859375 0.140625 3.4375 0.140625 C 4.515625 0.140625 5.15625 -0.578125 5.359375 -0.84375 L 5.359375 0.140625 L 7.375 0 L 7.375 -0.421875 C 6.390625 -0.421875 6.28125 -0.515625 6.28125 -1.21875 L 6.28125 -9.9375 Z M 5.359375 -1.671875 C 5.359375 -1.421875 5.359375 -1.375 5.15625 -1.0625 C 4.8125 -0.5625 4.21875 -0.140625 3.5 -0.140625 C 3.140625 -0.140625 1.59375 -0.28125 1.59375 -3.0625 C 1.59375 -4.09375 1.765625 -4.671875 2.078125 -5.140625 C 2.359375 -5.578125 2.9375 -6.03125 3.65625 -6.03125 C 4.53125 -6.03125 5.03125 -5.375 5.1875 -5.15625 C 5.359375 -4.90625 5.359375 -4.875 5.359375 -4.625 Z M 5.359375 -1.671875 "/>
</symbol>
<symbol overflow="visible" id="glyph5-7">
<path style="stroke:none;" d="M 5.484375 -3.328125 C 5.796875 -3.328125 5.828125 -3.328125 5.828125 -3.59375 C 5.828125 -5.03125 5.046875 -6.390625 3.328125 -6.390625 C 1.6875 -6.390625 0.421875 -4.90625 0.421875 -3.140625 C 0.421875 -1.25 1.890625 0.140625 3.484375 0.140625 C 5.1875 0.140625 5.828125 -1.40625 5.828125 -1.703125 C 5.828125 -1.796875 5.75 -1.84375 5.671875 -1.84375 C 5.546875 -1.84375 5.53125 -1.78125 5.5 -1.703125 C 5.125 -0.5 4.171875 -0.171875 3.5625 -0.171875 C 2.96875 -0.171875 1.515625 -0.578125 1.515625 -3.046875 L 1.515625 -3.328125 Z M 1.53125 -3.59375 C 1.640625 -5.84375 2.90625 -6.09375 3.3125 -6.09375 C 4.84375 -6.09375 4.921875 -4.078125 4.9375 -3.59375 Z M 1.53125 -3.59375 "/>
</symbol>
<symbol overflow="visible" id="glyph5-8">
<path style="stroke:none;" d="M 2.40625 -5.75 L 4.421875 -5.75 L 4.421875 -6.171875 L 2.40625 -6.171875 L 2.40625 -8.796875 L 2.09375 -8.796875 C 2.078125 -7.453125 1.5625 -6.078125 0.25 -6.046875 L 0.25 -5.75 L 1.46875 -5.75 L 1.46875 -1.78125 C 1.46875 -0.1875 2.53125 0.140625 3.296875 0.140625 C 4.1875 0.140625 4.671875 -0.75 4.671875 -1.78125 L 4.671875 -2.59375 L 4.34375 -2.59375 L 4.34375 -1.796875 C 4.34375 -0.765625 3.9375 -0.171875 3.375 -0.171875 C 2.40625 -0.171875 2.40625 -1.5 2.40625 -1.75 Z M 2.40625 -5.75 "/>
</symbol>
<symbol overflow="visible" id="glyph5-9">
<path style="stroke:none;" d="M 4.03125 -3.5625 C 4.03125 -4.65625 3.890625 -6.421875 3.09375 -8.09375 C 2.25 -9.796875 1.078125 -10.734375 0.921875 -10.734375 C 0.859375 -10.734375 0.78125 -10.703125 0.78125 -10.625 C 0.78125 -10.578125 0.78125 -10.546875 1.03125 -10.3125 C 2.46875 -8.859375 3.265625 -6.5 3.265625 -3.578125 C 3.265625 -0.796875 2.59375 1.59375 0.9375 3.28125 C 0.78125 3.40625 0.78125 3.4375 0.78125 3.484375 C 0.78125 3.5625 0.859375 3.59375 0.921875 3.59375 C 1.109375 3.59375 2.28125 2.5625 2.984375 1.15625 C 3.703125 -0.296875 4.03125 -1.84375 4.03125 -3.5625 Z M 4.03125 -3.5625 "/>
</symbol>
<symbol overflow="visible" id="glyph5-10">
<path style="stroke:none;" d="M 8.15625 -3.296875 C 8.15625 -1.28125 6.796875 -0.109375 5.453125 -0.109375 C 4.59375 -0.109375 3.109375 -0.6875 3.109375 -3.1875 L 3.109375 -8.6875 C 3.109375 -9.21875 3.15625 -9.359375 4.171875 -9.359375 L 4.46875 -9.359375 L 4.46875 -9.78125 C 4.125 -9.75 2.953125 -9.75 2.53125 -9.75 C 2.109375 -9.75 0.9375 -9.75 0.59375 -9.78125 L 0.59375 -9.359375 L 0.875 -9.359375 C 1.90625 -9.359375 1.953125 -9.21875 1.953125 -8.6875 L 1.953125 -3.28125 C 1.953125 -1.203125 3.609375 0.296875 5.421875 0.296875 C 7.40625 0.296875 8.546875 -1.640625 8.546875 -3.078125 L 8.546875 -8.484375 C 8.546875 -9.359375 9.640625 -9.359375 9.90625 -9.359375 L 9.90625 -9.78125 C 9.53125 -9.75 8.765625 -9.75 8.359375 -9.75 C 7.9375 -9.75 7.171875 -9.75 6.796875 -9.78125 L 6.796875 -9.359375 C 8.15625 -9.359375 8.15625 -8.6875 8.15625 -8.296875 Z M 8.15625 -3.296875 "/>
</symbol>
<symbol overflow="visible" id="glyph5-11">
<path style="stroke:none;" d="M 5.1875 -5.296875 C 5.015625 -5.296875 4.484375 -5.296875 4.484375 -4.703125 C 4.484375 -4.359375 4.71875 -4.125 5.0625 -4.125 C 5.390625 -4.125 5.671875 -4.328125 5.671875 -4.734375 C 5.671875 -5.703125 4.671875 -6.390625 3.5 -6.390625 C 1.828125 -6.390625 0.5 -4.890625 0.5 -3.09375 C 0.5 -1.265625 1.875 0.140625 3.5 0.140625 C 5.375 0.140625 5.8125 -1.578125 5.8125 -1.703125 C 5.8125 -1.828125 5.703125 -1.828125 5.671875 -1.828125 C 5.53125 -1.828125 5.53125 -1.796875 5.484375 -1.625 C 5.171875 -0.59375 4.390625 -0.171875 3.625 -0.171875 C 2.75 -0.171875 1.59375 -0.9375 1.59375 -3.109375 C 1.59375 -5.484375 2.8125 -6.0625 3.515625 -6.0625 C 4.0625 -6.0625 4.859375 -5.859375 5.1875 -5.296875 Z M 5.1875 -5.296875 "/>
</symbol>
<symbol overflow="visible" id="glyph6-0">
<path style="stroke:none;" d=""/>
</symbol>
<symbol overflow="visible" id="glyph6-1">
<path style="stroke:none;" d="M -9.703125 -9.34375 L -9.703125 -0.765625 L -6.515625 -0.5 L -6.515625 -0.8125 C -8.78125 -1.015625 -9.28125 -1.140625 -9.28125 -3.40625 C -9.28125 -3.65625 -9.28125 -4.0625 -9.265625 -4.171875 C -9.21875 -4.46875 -9.046875 -4.484375 -8.71875 -4.484375 L -1.109375 -4.484375 C -0.609375 -4.484375 -0.421875 -4.484375 -0.421875 -3.078125 L -0.421875 -2.5625 L 0 -2.5625 C -0.03125 -3.015625 -0.03125 -4.5 -0.03125 -5.046875 C -0.03125 -5.609375 -0.03125 -7.09375 0 -7.5625 L -0.421875 -7.5625 L -0.421875 -7.046875 C -0.421875 -5.640625 -0.609375 -5.640625 -1.109375 -5.640625 L -8.71875 -5.640625 C -9.078125 -5.640625 -9.203125 -5.671875 -9.265625 -5.890625 C -9.28125 -6.015625 -9.28125 -6.421875 -9.28125 -6.703125 C -9.28125 -8.953125 -8.78125 -9.09375 -6.515625 -9.28125 L -6.515625 -9.609375 Z M -9.703125 -9.34375 "/>
</symbol>
<symbol overflow="visible" id="glyph6-2">
<path style="stroke:none;" d="M 3.484375 -4.65625 C 3.4375 -4.65625 3.40625 -4.65625 3.15625 -4.40625 C 1.71875 -2.984375 -0.640625 -2.171875 -3.5625 -2.171875 C -6.34375 -2.171875 -8.734375 -2.84375 -10.421875 -4.515625 C -10.546875 -4.65625 -10.578125 -4.65625 -10.625 -4.65625 C -10.703125 -4.65625 -10.734375 -4.578125 -10.734375 -4.515625 C -10.734375 -4.34375 -9.703125 -3.15625 -8.296875 -2.46875 C -6.859375 -1.734375 -5.328125 -1.40625 -3.5625 -1.40625 C -2.296875 -1.40625 -0.59375 -1.609375 0.9375 -2.34375 C 2.65625 -3.1875 3.59375 -4.359375 3.59375 -4.515625 C 3.59375 -4.578125 3.5625 -4.65625 3.484375 -4.65625 Z M 3.484375 -4.65625 "/>
</symbol>
<symbol overflow="visible" id="glyph6-3">
<path style="stroke:none;" d="M -3.328125 -2.390625 C -4.71875 -2.390625 -6.03125 -2.96875 -6.03125 -4.0625 C -6.03125 -4.171875 -6.03125 -4.203125 -6.015625 -4.265625 C -5.953125 -4.15625 -5.875 -3.921875 -5.484375 -3.921875 C -5.0625 -3.921875 -4.90625 -4.25 -4.90625 -4.484375 C -4.90625 -4.765625 -5.09375 -5.046875 -5.484375 -5.046875 C -5.90625 -5.046875 -6.3125 -4.671875 -6.3125 -4.046875 C -6.3125 -2.828125 -5 -2.421875 -4.71875 -2.328125 L -4.71875 -2.3125 L -6.3125 -2.3125 L -6.15625 -0.40625 L -5.734375 -0.40625 C -5.734375 -1.375 -5.640625 -1.484375 -4.9375 -1.484375 L -1.0625 -1.484375 C -0.421875 -1.484375 -0.421875 -1.328125 -0.421875 -0.40625 L 0 -0.40625 C -0.03125 -0.796875 -0.03125 -1.59375 -0.03125 -2.015625 C -0.03125 -2.40625 -0.03125 -3.421875 0 -3.75 L -0.421875 -3.75 L -0.421875 -3.46875 C -0.421875 -2.421875 -0.578125 -2.390625 -1.09375 -2.390625 Z M -3.328125 -2.390625 "/>
</symbol>
<symbol overflow="visible" id="glyph6-4">
<path style="stroke:none;" d="M -6.15625 -4.34375 L -5.734375 -4.34375 C -5.734375 -5.328125 -5.640625 -5.4375 -4.9375 -5.4375 L -2.375 -5.4375 C -1.15625 -5.4375 -0.140625 -4.796875 -0.140625 -3.71875 C -0.140625 -2.546875 -0.8125 -2.46875 -1.578125 -2.46875 L -6.3125 -2.46875 L -6.15625 -0.453125 L -5.734375 -0.453125 C -5.734375 -1.546875 -5.703125 -1.546875 -4.421875 -1.546875 L -2.28125 -1.546875 C -1.390625 -1.546875 -0.875 -1.546875 -0.40625 -1.96875 C -0.03125 -2.3125 0.140625 -2.90625 0.140625 -3.640625 C 0.140625 -3.875 0.140625 -4.34375 -0.265625 -4.828125 C -0.59375 -5.234375 -1.140625 -5.46875 -1.140625 -5.46875 L 0.140625 -5.46875 L 0 -7.453125 L -0.421875 -7.453125 C -0.421875 -6.484375 -0.515625 -6.375 -1.21875 -6.375 L -6.3125 -6.375 Z M -6.15625 -4.34375 "/>
</symbol>
<symbol overflow="visible" id="glyph6-5">
<path style="stroke:none;" d="M -3.328125 -5.484375 C -3.328125 -5.796875 -3.328125 -5.828125 -3.59375 -5.828125 C -5.03125 -5.828125 -6.390625 -5.046875 -6.390625 -3.328125 C -6.390625 -1.6875 -4.90625 -0.421875 -3.140625 -0.421875 C -1.25 -0.421875 0.140625 -1.890625 0.140625 -3.484375 C 0.140625 -5.1875 -1.40625 -5.828125 -1.703125 -5.828125 C -1.796875 -5.828125 -1.84375 -5.75 -1.84375 -5.671875 C -1.84375 -5.546875 -1.78125 -5.53125 -1.703125 -5.5 C -0.5 -5.125 -0.171875 -4.171875 -0.171875 -3.5625 C -0.171875 -2.96875 -0.578125 -1.515625 -3.046875 -1.515625 L -3.328125 -1.515625 Z M -3.59375 -1.53125 C -5.84375 -1.640625 -6.09375 -2.90625 -6.09375 -3.3125 C -6.09375 -4.84375 -4.078125 -4.921875 -3.59375 -4.9375 Z M -3.59375 -1.53125 "/>
</symbol>
<symbol overflow="visible" id="glyph6-6">
<path style="stroke:none;" d="M -3.5625 -4.03125 C -4.65625 -4.03125 -6.421875 -3.890625 -8.09375 -3.09375 C -9.796875 -2.25 -10.734375 -1.078125 -10.734375 -0.921875 C -10.734375 -0.859375 -10.703125 -0.78125 -10.625 -0.78125 C -10.578125 -0.78125 -10.546875 -0.78125 -10.3125 -1.03125 C -8.859375 -2.46875 -6.5 -3.265625 -3.578125 -3.265625 C -0.796875 -3.265625 1.59375 -2.59375 3.28125 -0.9375 C 3.40625 -0.78125 3.4375 -0.78125 3.484375 -0.78125 C 3.5625 -0.78125 3.59375 -0.859375 3.59375 -0.921875 C 3.59375 -1.109375 2.5625 -2.28125 1.15625 -2.984375 C -0.296875 -3.703125 -1.84375 -4.03125 -3.5625 -4.03125 Z M -3.5625 -4.03125 "/>
</symbol>
<symbol overflow="visible" id="glyph6-7">
<path style="stroke:none;" d="M -9.75 -8.171875 L -9.75 -0.59375 L -9.328125 -0.59375 L -9.328125 -0.875 C -9.328125 -1.90625 -9.1875 -1.953125 -8.65625 -1.953125 L -1.09375 -1.953125 C -0.5625 -1.953125 -0.421875 -1.90625 -0.421875 -0.875 L -0.421875 -0.59375 L 0 -0.59375 C -0.03125 -0.9375 -0.03125 -2.203125 -0.03125 -2.640625 C -0.03125 -3.140625 -0.03125 -4.390625 0 -4.8125 L -0.421875 -4.8125 L -0.421875 -4.375 C -0.421875 -3.140625 -0.59375 -3.109375 -1.109375 -3.109375 L -4.671875 -3.109375 L -4.671875 -4.359375 C -4.671875 -5.703125 -4.1875 -5.859375 -2.984375 -5.859375 L -2.984375 -6.171875 L -6.75 -6.171875 L -6.75 -5.859375 C -5.546875 -5.859375 -5.078125 -5.703125 -5.078125 -4.359375 L -5.078125 -3.109375 L -8.765625 -3.109375 C -9.234375 -3.109375 -9.328125 -3.140625 -9.328125 -3.765625 L -9.328125 -5.546875 C -9.328125 -7.609375 -8.578125 -8.03125 -6.5625 -8.234375 L -6.5625 -8.546875 Z M -9.75 -8.171875 "/>
</symbol>
<symbol overflow="visible" id="glyph6-8">
<path style="stroke:none;" d="M -3.828125 -5.53125 C -4.59375 -5.53125 -5.171875 -5.53125 -5.71875 -4.890625 C -6.1875 -4.390625 -6.390625 -3.75 -6.390625 -3.125 C -6.390625 -1.953125 -5.609375 -1.046875 -4.6875 -1.046875 C -4.265625 -1.046875 -4.0625 -1.3125 -4.0625 -1.640625 C -4.0625 -1.984375 -4.3125 -2.234375 -4.65625 -2.234375 C -5.234375 -2.234375 -5.234375 -1.71875 -5.234375 -1.5 C -5.84375 -1.828125 -6.09375 -2.515625 -6.09375 -3.09375 C -6.09375 -3.75 -5.546875 -4.59375 -4.265625 -4.59375 L -3.6875 -4.59375 C -3.65625 -1.71875 -2.453125 -0.625 -1.34375 -0.625 C -0.21875 -0.625 0.140625 -1.953125 0.140625 -2.8125 C 0.140625 -3.765625 -0.421875 -4.40625 -1.109375 -4.6875 C -0.4375 -4.734375 0.078125 -5.1875 0.078125 -5.796875 C 0.078125 -6.09375 -0.125 -6.921875 -1.28125 -6.921875 L -2.078125 -6.921875 L -2.078125 -6.609375 L -1.28125 -6.609375 C -0.453125 -6.609375 -0.34375 -6.265625 -0.34375 -6.0625 C -0.34375 -5.53125 -1.109375 -5.53125 -1.3125 -5.53125 Z M -2.015625 -4.59375 C -0.609375 -4.59375 -0.140625 -3.546875 -0.140625 -2.9375 C -0.140625 -2.234375 -0.65625 -1.640625 -1.34375 -1.640625 C -3.234375 -1.640625 -3.40625 -4.078125 -3.4375 -4.59375 Z M -2.015625 -4.59375 "/>
</symbol>
<symbol overflow="visible" id="glyph6-9">
<path style="stroke:none;" d="M -9.9375 -2.46875 L -9.78125 -0.46875 L -9.359375 -0.46875 C -9.359375 -1.453125 -9.265625 -1.5625 -8.5625 -1.5625 L -1.0625 -1.5625 C -0.421875 -1.5625 -0.421875 -1.40625 -0.421875 -0.46875 L 0 -0.46875 C -0.03125 -0.875 -0.03125 -1.578125 -0.03125 -2 C -0.03125 -2.4375 -0.03125 -3.15625 0 -3.546875 L -0.421875 -3.546875 C -0.421875 -2.640625 -0.421875 -2.46875 -1.0625 -2.46875 Z M -9.9375 -2.46875 "/>
</symbol>
<symbol overflow="visible" id="glyph6-10">
<path style="stroke:none;" d="M -6.046875 -4.6875 C -6.3125 -4.6875 -6.390625 -4.6875 -6.390625 -4.546875 C -6.390625 -4.4375 -6.0625 -4.171875 -5.9375 -4.0625 C -6.296875 -3.625 -6.390625 -3.171875 -6.390625 -2.71875 C -6.390625 -0.984375 -5.4375 -0.46875 -4.65625 -0.46875 C -4.5 -0.46875 -4 -0.46875 -3.5 -1.015625 C -3.09375 -1.46875 -2.984375 -1.953125 -2.859375 -2.625 C -2.703125 -3.40625 -2.65625 -3.59375 -2.375 -3.953125 C -2.15625 -4.203125 -1.84375 -4.390625 -1.453125 -4.390625 C -0.828125 -4.390625 -0.140625 -4.03125 -0.140625 -2.78125 C -0.140625 -1.828125 -0.6875 -1.140625 -2.125 -0.828125 C -2.375 -0.765625 -2.390625 -0.765625 -2.40625 -0.765625 C -2.46875 -0.734375 -2.46875 -0.671875 -2.46875 -0.625 C -2.46875 -0.46875 -2.390625 -0.46875 -2.125 -0.46875 L -0.1875 -0.46875 C 0.078125 -0.46875 0.140625 -0.46875 0.140625 -0.609375 C 0.140625 -0.6875 0.125 -0.703125 -0.171875 -0.9375 C -0.265625 -1.015625 -0.296875 -1.015625 -0.53125 -1.234375 C 0.140625 -1.78125 0.140625 -2.546875 0.140625 -2.796875 C 0.140625 -4.296875 -0.6875 -5.03125 -1.8125 -5.03125 C -2.59375 -5.03125 -3.046875 -4.5625 -3.171875 -4.4375 C -3.625 -3.921875 -3.703125 -3.53125 -3.875 -2.59375 C -3.96875 -2.15625 -4.171875 -1.109375 -5.03125 -1.109375 C -5.46875 -1.109375 -6.125 -1.421875 -6.125 -2.703125 C -6.125 -4.265625 -4.796875 -4.34375 -4.34375 -4.375 C -4.234375 -4.390625 -4.234375 -4.5 -4.234375 -4.53125 C -4.234375 -4.6875 -4.3125 -4.6875 -4.5625 -4.6875 Z M -6.046875 -4.6875 "/>
</symbol>
</g>
<clipPath id="clip1">
  <path d="M 140 27 L 236.929688 27 L 236.929688 138 L 140 138 Z M 140 27 "/>
</clipPath>
<clipPath id="clip2">
  <path d="M 140 27 L 236.929688 27 L 236.929688 139 L 140 139 Z M 140 27 "/>
</clipPath>
<clipPath id="clip3">
  <path d="M 140 163 L 236.929688 163 L 236.929688 274 L 140 274 Z M 140 163 "/>
</clipPath>
</defs>
<g id="surface1">
<path style="fill-rule:nonzero;fill:rgb(94.999695%,94.999695%,94.999695%);fill-opacity:1;stroke-width:0.3985;stroke-linecap:butt;stroke-linejoin:miter;stroke:rgb(79.998779%,79.998779%,79.998779%);stroke-opacity:1;stroke-miterlimit:10;" d="M -0.00158571 127.561323 L -0.00158571 238.114989 L 96.379537 238.114989 L 96.379537 127.561323 Z M -0.00158571 127.561323 " transform="matrix(0.997748,0,0,-0.997748,21.782832,265.250605)"/>
<path style="fill:none;stroke-width:1.19553;stroke-linecap:butt;stroke-linejoin:miter;stroke:rgb(0%,0%,0%);stroke-opacity:1;stroke-miterlimit:10;" d="M 8.505855 136.064849 L 8.505855 225.817763 " transform="matrix(0.997748,0,0,-0.997748,21.782832,265.250605)"/>
<path style="fill:none;stroke-width:0.9564;stroke-linecap:round;stroke-linejoin:round;stroke:rgb(0%,0%,0%);stroke-opacity:1;stroke-miterlimit:10;" d="M -1.91089 2.550889 C -1.754287 1.595612 -0.000336969 0.158783 0.477301 -0.00173516 C -0.000336969 -0.158338 -1.754287 -1.595167 -1.91089 -2.550444 " transform="matrix(0,-0.997748,-0.997748,0,30.2678,39.94107)"/>
<g style="fill:rgb(0%,0%,0%);fill-opacity:1;">
  <use xlink:href="#glyph0-1" x="27.473986" y="35.080142"/>
</g>
<path style="fill:none;stroke-width:0.79701;stroke-linecap:butt;stroke-linejoin:miter;stroke:rgb(31.373596%,58.822632%,31.373596%);stroke-opacity:1;stroke-miterlimit:10;" d="M 28.347415 189.924428 L 28.347415 218.269514 " transform="matrix(0.997748,0,0,-0.997748,21.782832,265.250605)"/>
<path style="fill-rule:nonzero;fill:rgb(31.373596%,58.822632%,31.373596%);fill-opacity:1;stroke-width:0.3985;stroke-linecap:butt;stroke-linejoin:miter;stroke:rgb(31.373596%,58.822632%,31.373596%);stroke-opacity:1;stroke-miterlimit:10;" d="M 31.334612 204.096971 C 31.334612 205.749129 29.995659 207.084167 28.347415 207.084167 C 26.695257 207.084167 25.356304 205.749129 25.356304 204.096971 C 25.356304 202.444812 26.695257 201.109774 28.347415 201.109774 C 29.995659 201.109774 31.334612 202.444812 31.334612 204.096971 Z M 31.334612 204.096971 " transform="matrix(0.997748,0,0,-0.997748,21.782832,265.250605)"/>
<g style="fill:rgb(31.373596%,58.822632%,31.373596%);fill-opacity:1;">
  <use xlink:href="#glyph1-1" x="55.839959" y="82.628816"/>
</g>
<g style="fill:rgb(31.373596%,58.822632%,31.373596%);fill-opacity:1;">
  <use xlink:href="#glyph2-1" x="60.690592" y="82.628816"/>
</g>
<path style="fill:none;stroke-width:0.79701;stroke-linecap:butt;stroke-linejoin:miter;stroke:rgb(62.745667%,15.684509%,15.684509%);stroke-opacity:1;stroke-miterlimit:10;" d="M 48.188976 157.323664 L 48.188976 182.838156 " transform="matrix(0.997748,0,0,-0.997748,21.782832,265.250605)"/>
<path style="fill-rule:nonzero;fill:rgb(62.745667%,15.684509%,15.684509%);fill-opacity:1;stroke-width:0.3985;stroke-linecap:butt;stroke-linejoin:miter;stroke:rgb(62.745667%,15.684509%,15.684509%);stroke-opacity:1;stroke-miterlimit:10;" d="M 51.180087 170.078952 C 51.180087 171.731111 49.841134 173.070064 48.188976 173.070064 C 46.536817 173.070064 45.201779 171.731111 45.201779 170.078952 C 45.201779 168.430709 46.536817 167.091756 48.188976 167.091756 C 49.841134 167.091756 51.180087 168.430709 51.180087 170.078952 Z M 51.180087 170.078952 " transform="matrix(0.997748,0,0,-0.997748,21.782832,265.250605)"/>
<g style="fill:rgb(62.745667%,15.684509%,15.684509%);fill-opacity:1;">
  <use xlink:href="#glyph1-1" x="75.637273" y="115.153402"/>
</g>
<g style="fill:rgb(62.745667%,15.684509%,15.684509%);fill-opacity:1;">
  <use xlink:href="#glyph3-1" x="80.487906" y="115.153402"/>
</g>
<g style="fill:rgb(50%,50%,50%);fill-opacity:1;">
  <use xlink:href="#glyph4-1" x="61.428345" y="136.39745"/>
  <use xlink:href="#glyph4-2" x="69.864021" y="136.39745"/>
</g>
<g clip-path="url(#clip1)" clip-rule="nonzero">
<path style=" stroke:none;fill-rule:nonzero;fill:rgb(94.999695%,94.999695%,94.999695%);fill-opacity:1;" d="M 140.570312 137.976562 L 140.570312 27.671875 L 236.734375 27.671875 L 236.734375 137.976562 Z M 140.570312 137.976562 "/>
</g>
<g clip-path="url(#clip2)" clip-rule="nonzero">
<path style="fill:none;stroke-width:0.3985;stroke-linecap:butt;stroke-linejoin:miter;stroke:rgb(79.998779%,79.998779%,79.998779%);stroke-opacity:1;stroke-miterlimit:10;" d="M 119.055606 127.561323 L 119.055606 238.114989 L 215.436728 238.114989 L 215.436728 127.561323 Z M 119.055606 127.561323 " transform="matrix(0.997748,0,0,-0.997748,21.782832,265.250605)"/>
</g>
<path style="fill:none;stroke-width:1.19553;stroke-linecap:butt;stroke-linejoin:miter;stroke:rgb(0%,0%,0%);stroke-opacity:1;stroke-miterlimit:10;" d="M 127.559131 136.064849 L 127.559131 225.817763 " transform="matrix(0.997748,0,0,-0.997748,21.782832,265.250605)"/>
<path style="fill:none;stroke-width:0.9564;stroke-linecap:round;stroke-linejoin:round;stroke:rgb(0%,0%,0%);stroke-opacity:1;stroke-miterlimit:10;" d="M -1.91089 2.550247 C -1.754287 1.594971 -0.000336969 0.158141 0.477301 0.00153861 C -0.000336969 -0.158979 -1.754287 -1.595809 -1.91089 -2.551085 " transform="matrix(0,-0.997748,-0.997748,0,149.056223,39.94107)"/>
<g style="fill:rgb(0%,0%,0%);fill-opacity:1;">
  <use xlink:href="#glyph0-1" x="146.260862" y="35.080142"/>
</g>
<path style=" stroke:none;fill-rule:nonzero;fill:rgb(70.588684%,70.588684%,70.588684%);fill-opacity:0.55;" d="M 168.855469 87.066406 L 168.855469 64.441406 L 188.652344 64.441406 L 188.652344 87.066406 Z M 168.855469 87.066406 "/>
<path style="fill:none;stroke-width:0.79701;stroke-linecap:butt;stroke-linejoin:miter;stroke:rgb(31.373596%,58.822632%,31.373596%);stroke-opacity:1;stroke-miterlimit:10;" d="M 147.404607 178.586393 L 147.404607 218.269514 " transform="matrix(0.997748,0,0,-0.997748,21.782832,265.250605)"/>
<path style="fill-rule:nonzero;fill:rgb(31.373596%,58.822632%,31.373596%);fill-opacity:1;stroke-width:0.3985;stroke-linecap:butt;stroke-linejoin:miter;stroke:rgb(31.373596%,58.822632%,31.373596%);stroke-opacity:1;stroke-miterlimit:10;" d="M 150.391803 198.427953 C 150.391803 200.080112 149.05285 201.41515 147.404607 201.41515 C 145.752448 201.41515 144.413495 200.080112 144.413495 198.427953 C 144.413495 196.775795 145.752448 195.440757 147.404607 195.440757 C 149.05285 195.440757 150.391803 196.775795 150.391803 198.427953 Z M 150.391803 198.427953 " transform="matrix(0.997748,0,0,-0.997748,21.782832,265.250605)"/>
<g style="fill:rgb(31.373596%,58.822632%,31.373596%);fill-opacity:1;">
  <use xlink:href="#glyph1-1" x="174.626835" y="93.941282"/>
</g>
<g style="fill:rgb(31.373596%,58.822632%,31.373596%);fill-opacity:1;">
  <use xlink:href="#glyph2-1" x="179.477468" y="93.941282"/>
</g>
<path style="fill:none;stroke-width:0.79701;stroke-linecap:butt;stroke-linejoin:miter;stroke:rgb(62.745667%,15.684509%,15.684509%);stroke-opacity:1;stroke-miterlimit:10;" d="M 167.246167 161.575427 L 167.246167 201.262462 " transform="matrix(0.997748,0,0,-0.997748,21.782832,265.250605)"/>
<path style="fill-rule:nonzero;fill:rgb(62.745667%,15.684509%,15.684509%);fill-opacity:1;stroke-width:0.3985;stroke-linecap:butt;stroke-linejoin:miter;stroke:rgb(62.745667%,15.684509%,15.684509%);stroke-opacity:1;stroke-miterlimit:10;" d="M 170.233363 181.420902 C 170.233363 183.069145 168.898325 184.408098 167.246167 184.408098 C 165.594009 184.408098 164.258971 183.069145 164.258971 181.420902 C 164.258971 179.768743 165.594009 178.429791 167.246167 178.429791 C 168.898325 178.429791 170.233363 179.768743 170.233363 181.420902 Z M 170.233363 181.420902 " transform="matrix(0.997748,0,0,-0.997748,21.782832,265.250605)"/>
<g style="fill:rgb(62.745667%,15.684509%,15.684509%);fill-opacity:1;">
  <use xlink:href="#glyph1-1" x="194.424149" y="110.910978"/>
</g>
<g style="fill:rgb(62.745667%,15.684509%,15.684509%);fill-opacity:1;">
  <use xlink:href="#glyph3-1" x="199.274782" y="110.910978"/>
</g>
<g style="fill:rgb(50%,50%,50%);fill-opacity:1;">
  <use xlink:href="#glyph4-3" x="180.054584" y="136.39745"/>
  <use xlink:href="#glyph4-2" x="188.809938" y="136.39745"/>
</g>
<path style="fill-rule:nonzero;fill:rgb(94.999695%,94.999695%,94.999695%);fill-opacity:1;stroke-width:0.3985;stroke-linecap:butt;stroke-linejoin:miter;stroke:rgb(79.998779%,79.998779%,79.998779%);stroke-opacity:1;stroke-miterlimit:10;" d="M -0.00158571 -8.50292 L -0.00158571 102.046831 L 96.379537 102.046831 L 96.379537 -8.50292 Z M -0.00158571 -8.50292 " transform="matrix(0.997748,0,0,-0.997748,21.782832,265.250605)"/>
<path style="fill:none;stroke-width:1.19553;stroke-linecap:butt;stroke-linejoin:miter;stroke:rgb(0%,0%,0%);stroke-opacity:1;stroke-miterlimit:10;" d="M 8.505855 0.000606273 L 8.505855 89.75352 " transform="matrix(0.997748,0,0,-0.997748,21.782832,265.250605)"/>
<path style="fill:none;stroke-width:0.9564;stroke-linecap:round;stroke-linejoin:round;stroke:rgb(0%,0%,0%);stroke-opacity:1;stroke-miterlimit:10;" d="M -1.914228 2.550889 C -1.75371 1.595612 0.000240136 0.158783 0.477878 -0.00173516 C 0.000240136 -0.158338 -1.75371 -1.595167 -1.914228 -2.550444 " transform="matrix(0,-0.997748,-0.997748,0,30.2678,175.699458)"/>
<g style="fill:rgb(0%,0%,0%);fill-opacity:1;">
  <use xlink:href="#glyph0-1" x="27.473986" y="170.836714"/>
</g>
<path style="fill:none;stroke-width:0.79701;stroke-linecap:butt;stroke-linejoin:miter;stroke:rgb(31.373596%,58.822632%,31.373596%);stroke-opacity:1;stroke-miterlimit:10;" d="M 28.347415 21.259421 L 28.347415 46.773913 " transform="matrix(0.997748,0,0,-0.997748,21.782832,265.250605)"/>
<path style="fill-rule:nonzero;fill:rgb(31.373596%,58.822632%,31.373596%);fill-opacity:1;stroke-width:0.3985;stroke-linecap:butt;stroke-linejoin:miter;stroke:rgb(31.373596%,58.822632%,31.373596%);stroke-opacity:1;stroke-miterlimit:10;" d="M 31.334612 34.014709 C 31.334612 35.666868 29.995659 37.005821 28.347415 37.005821 C 26.695257 37.005821 25.356304 35.666868 25.356304 34.014709 C 25.356304 32.366466 26.695257 31.027513 28.347415 31.027513 C 29.995659 31.027513 31.334612 32.366466 31.334612 34.014709 Z M 31.334612 34.014709 " transform="matrix(0.997748,0,0,-0.997748,21.782832,265.250605)"/>
<g style="fill:rgb(31.373596%,58.822632%,31.373596%);fill-opacity:1;">
  <use xlink:href="#glyph1-1" x="55.839959" y="250.909974"/>
</g>
<g style="fill:rgb(31.373596%,58.822632%,31.373596%);fill-opacity:1;">
  <use xlink:href="#glyph2-1" x="60.690592" y="250.909974"/>
</g>
<path style="fill:none;stroke-width:0.79701;stroke-linecap:butt;stroke-linejoin:miter;stroke:rgb(62.745667%,15.684509%,15.684509%);stroke-opacity:1;stroke-miterlimit:10;" d="M 48.188976 53.860185 L 48.188976 82.205271 " transform="matrix(0.997748,0,0,-0.997748,21.782832,265.250605)"/>
<path style="fill-rule:nonzero;fill:rgb(62.745667%,15.684509%,15.684509%);fill-opacity:1;stroke-width:0.3985;stroke-linecap:butt;stroke-linejoin:miter;stroke:rgb(62.745667%,15.684509%,15.684509%);stroke-opacity:1;stroke-miterlimit:10;" d="M 51.180087 68.032728 C 51.180087 69.680971 49.841134 71.019924 48.188976 71.019924 C 46.536817 71.019924 45.201779 69.680971 45.201779 68.032728 C 45.201779 66.380569 46.536817 65.041616 48.188976 65.041616 C 49.841134 65.041616 51.180087 66.380569 51.180087 68.032728 Z M 51.180087 68.032728 " transform="matrix(0.997748,0,0,-0.997748,21.782832,265.250605)"/>
<g style="fill:rgb(62.745667%,15.684509%,15.684509%);fill-opacity:1;">
  <use xlink:href="#glyph1-1" x="75.637273" y="218.385388"/>
</g>
<g style="fill:rgb(62.745667%,15.684509%,15.684509%);fill-opacity:1;">
  <use xlink:href="#glyph3-1" x="80.487906" y="218.385388"/>
</g>
<g style="fill:rgb(50%,50%,50%);fill-opacity:1;">
  <use xlink:href="#glyph4-1" x="61.834428" y="272.154023"/>
  <use xlink:href="#glyph4-4" x="70.270105" y="272.154023"/>
</g>
<g clip-path="url(#clip3)" clip-rule="nonzero">
<path style="fill-rule:nonzero;fill:rgb(94.999695%,94.999695%,94.999695%);fill-opacity:1;stroke-width:0.3985;stroke-linecap:butt;stroke-linejoin:miter;stroke:rgb(79.998779%,79.998779%,79.998779%);stroke-opacity:1;stroke-miterlimit:10;" d="M 119.055606 -8.50292 L 119.055606 102.046831 L 215.436728 102.046831 L 215.436728 -8.50292 Z M 119.055606 -8.50292 " transform="matrix(0.997748,0,0,-0.997748,21.782832,265.250605)"/>
</g>
<path style="fill:none;stroke-width:1.19553;stroke-linecap:butt;stroke-linejoin:miter;stroke:rgb(0%,0%,0%);stroke-opacity:1;stroke-miterlimit:10;" d="M 127.559131 0.000606273 L 127.559131 89.75352 " transform="matrix(0.997748,0,0,-0.997748,21.782832,265.250605)"/>
<path style="fill:none;stroke-width:0.9564;stroke-linecap:round;stroke-linejoin:round;stroke:rgb(0%,0%,0%);stroke-opacity:1;stroke-miterlimit:10;" d="M -1.914228 2.550247 C -1.75371 1.594971 0.000240136 0.158141 0.477878 0.00153861 C 0.000240136 -0.158979 -1.75371 -1.595809 -1.914228 -2.551085 " transform="matrix(0,-0.997748,-0.997748,0,149.056223,175.699458)"/>
<g style="fill:rgb(0%,0%,0%);fill-opacity:1;">
  <use xlink:href="#glyph0-1" x="146.260862" y="170.836714"/>
</g>
<path style=" stroke:none;fill-rule:nonzero;fill:rgb(70.588684%,70.588684%,70.588684%);fill-opacity:0.55;" d="M 168.855469 222.824219 L 168.855469 200.199219 L 188.652344 200.199219 L 188.652344 222.824219 Z M 168.855469 222.824219 "/>
<path style="fill:none;stroke-width:0.79701;stroke-linecap:butt;stroke-linejoin:miter;stroke:rgb(31.373596%,58.822632%,31.373596%);stroke-opacity:1;stroke-miterlimit:10;" d="M 147.404607 25.511184 L 147.404607 65.198219 " transform="matrix(0.997748,0,0,-0.997748,21.782832,265.250605)"/>
<path style="fill-rule:nonzero;fill:rgb(31.373596%,58.822632%,31.373596%);fill-opacity:1;stroke-width:0.3985;stroke-linecap:butt;stroke-linejoin:miter;stroke:rgb(31.373596%,58.822632%,31.373596%);stroke-opacity:1;stroke-miterlimit:10;" d="M 150.391803 45.356659 C 150.391803 47.004902 149.05285 48.343855 147.404607 48.343855 C 145.752448 48.343855 144.413495 47.004902 144.413495 45.356659 C 144.413495 43.704501 145.752448 42.365548 147.404607 42.365548 C 149.05285 42.365548 150.391803 43.704501 150.391803 45.356659 Z M 150.391803 45.356659 " transform="matrix(0.997748,0,0,-0.997748,21.782832,265.250605)"/>
<g style="fill:rgb(31.373596%,58.822632%,31.373596%);fill-opacity:1;">
  <use xlink:href="#glyph1-1" x="174.626835" y="246.66755"/>
</g>
<g style="fill:rgb(31.373596%,58.822632%,31.373596%);fill-opacity:1;">
  <use xlink:href="#glyph2-1" x="179.477468" y="246.66755"/>
</g>
<path style="fill:none;stroke-width:0.79701;stroke-linecap:butt;stroke-linejoin:miter;stroke:rgb(62.745667%,15.684509%,15.684509%);stroke-opacity:1;stroke-miterlimit:10;" d="M 167.246167 42.52215 L 167.246167 82.205271 " transform="matrix(0.997748,0,0,-0.997748,21.782832,265.250605)"/>
<path style="fill-rule:nonzero;fill:rgb(62.745667%,15.684509%,15.684509%);fill-opacity:1;stroke-width:0.3985;stroke-linecap:butt;stroke-linejoin:miter;stroke:rgb(62.745667%,15.684509%,15.684509%);stroke-opacity:1;stroke-miterlimit:10;" d="M 170.233363 62.363711 C 170.233363 64.011954 168.898325 65.350907 167.246167 65.350907 C 165.594009 65.350907 164.258971 64.011954 164.258971 62.363711 C 164.258971 60.711552 165.594009 59.372599 167.246167 59.372599 C 168.898325 59.372599 170.233363 60.711552 170.233363 62.363711 Z M 170.233363 62.363711 " transform="matrix(0.997748,0,0,-0.997748,21.782832,265.250605)"/>
<g style="fill:rgb(62.745667%,15.684509%,15.684509%);fill-opacity:1;">
  <use xlink:href="#glyph1-1" x="194.424149" y="229.697854"/>
</g>
<g style="fill:rgb(62.745667%,15.684509%,15.684509%);fill-opacity:1;">
  <use xlink:href="#glyph3-1" x="199.274782" y="229.697854"/>
</g>
<g style="fill:rgb(50%,50%,50%);fill-opacity:1;">
  <use xlink:href="#glyph4-3" x="180.461665" y="272.154023"/>
  <use xlink:href="#glyph4-4" x="189.217019" y="272.154023"/>
</g>
<g style="fill:rgb(0%,0%,0%);fill-opacity:1;">
  <use xlink:href="#glyph5-1" x="34.629834" y="14.286078"/>
  <use xlink:href="#glyph5-2" x="44.752618" y="14.286078"/>
  <use xlink:href="#glyph5-3" x="50.203347" y="14.286078"/>
  <use xlink:href="#glyph5-4" x="57.211428" y="14.286078"/>
  <use xlink:href="#glyph5-5" x="64.998185" y="14.286078"/>
  <use xlink:href="#glyph5-6" x="72.784942" y="14.286078"/>
  <use xlink:href="#glyph5-7" x="80.571698" y="14.286078"/>
  <use xlink:href="#glyph5-4" x="86.801104" y="14.286078"/>
</g>
<g style="fill:rgb(0%,0%,0%);fill-opacity:1;">
  <use xlink:href="#glyph5-8" x="94.201385" y="14.286078"/>
  <use xlink:href="#glyph5-9" x="99.652115" y="14.286078"/>
</g>
<g style="fill:rgb(0%,0%,0%);fill-opacity:1;">
  <use xlink:href="#glyph5-10" x="146.216961" y="14.286078"/>
  <use xlink:href="#glyph5-2" x="156.723357" y="14.286078"/>
  <use xlink:href="#glyph5-4" x="162.174087" y="14.286078"/>
  <use xlink:href="#glyph5-11" x="169.960844" y="14.286078"/>
  <use xlink:href="#glyph5-3" x="176.190249" y="14.286078"/>
  <use xlink:href="#glyph5-4" x="183.19833" y="14.286078"/>
  <use xlink:href="#glyph5-5" x="190.985087" y="14.286078"/>
  <use xlink:href="#glyph5-6" x="198.771843" y="14.286078"/>
  <use xlink:href="#glyph5-7" x="206.5586" y="14.286078"/>
  <use xlink:href="#glyph5-4" x="212.788005" y="14.286078"/>
</g>
<g style="fill:rgb(0%,0%,0%);fill-opacity:1;">
  <use xlink:href="#glyph5-8" x="220.188287" y="14.286078"/>
  <use xlink:href="#glyph5-9" x="225.639016" y="14.286078"/>
</g>
<g style="fill:rgb(0%,0%,0%);fill-opacity:1;">
  <use xlink:href="#glyph6-1" x="14.04829" y="96.001631"/>
  <use xlink:href="#glyph6-2" x="14.04829" y="85.878847"/>
  <use xlink:href="#glyph6-3" x="14.04829" y="80.428118"/>
  <use xlink:href="#glyph6-4" x="14.04829" y="74.977388"/>
  <use xlink:href="#glyph6-5" x="14.04829" y="67.190631"/>
  <use xlink:href="#glyph6-6" x="14.04829" y="60.961226"/>
</g>
<g style="fill:rgb(0%,0%,0%);fill-opacity:1;">
  <use xlink:href="#glyph6-7" x="14.04829" y="232.866701"/>
  <use xlink:href="#glyph6-2" x="14.04829" y="223.720125"/>
  <use xlink:href="#glyph6-8" x="14.04829" y="218.269395"/>
  <use xlink:href="#glyph6-9" x="14.04829" y="211.261314"/>
  <use xlink:href="#glyph6-10" x="14.04829" y="207.367936"/>
  <use xlink:href="#glyph6-5" x="14.04829" y="201.839911"/>
  <use xlink:href="#glyph6-6" x="14.04829" y="195.610506"/>
</g>
</g>
</svg>
